<?xml version="1.0" encoding="UTF-8"?>
<!DOCTYPE svg PUBLIC "-//W3C//DTD SVG 1.1//EN" "http://www.w3.org/Graphics/SVG/1.1/DTD/svg11.dtd">
<!-- Creator: CorelDRAW -->
<svg xmlns="http://www.w3.org/2000/svg" xml:space="preserve" width="158mm" height="158mm" version="1.1" style="shape-rendering:geometricPrecision; text-rendering:geometricPrecision; image-rendering:optimizeQuality; fill-rule:evenodd; clip-rule:evenodd"
viewBox="0 0 15800 15800"
 xmlns:xlink="http://www.w3.org/1999/xlink"
 xmlns:xodm="http://www.corel.com/coreldraw/odm/2003">
 <defs>
  <style type="text/css">
   <![CDATA[
    .fil1 {fill:#FEFEFE}
    .fil0 {fill:#FEFEFE;fill-rule:nonzero}
   ]]>
  </style>
 </defs>
 <g id="Слой_x0020_1">
  <metadata id="CorelCorpID_0Corel-Layer"/>
  <g id="_2868769962960">
   <path class="fil0" d="M2122.87 4425.56l-400.53 -259.68 171.6 -264.64c65.64,-101.24 90.42,-197.3 73.25,-289.09 -16.26,-93.26 -66.73,-167.3 -151.34,-222.08 -83.1,-53.98 -169.84,-68.89 -258.84,-43.91 -89.54,22.69 -167.04,84.57 -232.64,185.85l-270.41 417.07 970.09 628.86 98.82 -152.38zm-830.09 -538.15l163.5 -252.24c74.53,-114.99 169.8,-149.75 262.72,-89.5 92.8,60.17 101.45,162.24 26.87,277.22l-163.5 252.24 -289.59 -187.72zm1904.01 -847.34l-125.89 -109.39 -434.28 500.09 -276.81 -240.33 342.16 -394.13 -125.98 -109.3 -342.15 394.04 -218.23 -189.48 420.08 -483.92 -125.93 -109.34 -539.2 621.05 873 758.01 553.23 -637.3zm606.13 -460.19c102.58,-80.77 171.48,-174.82 208.96,-282.12l-113.4 -144.06c-26.11,110.97 -91.67,206.65 -194.2,287.29 -97.44,76.59 -202.35,108.72 -317.3,96.27 -113.68,-13.62 -210.45,-69.82 -287.04,-167.21 -76.54,-97.35 -108.72,-202.31 -95.22,-315.96 13.62,-113.65 68.52,-209.41 163.28,-283.95 89.59,-70.49 189.7,-111.43 301.59,-121.63l-113.4 -144.06c-103.08,15.92 -201.18,59.5 -294.65,133.03 -137.63,108.18 -217.05,242.25 -237.53,403.28 -21.39,159.69 22.02,308.44 129.23,444.69 107.3,136.25 241.5,213.51 402.87,231.56 161.57,15.79 310.56,-29.96 446.81,-137.13zm598.66 -438l-488.81 -860.05 501.09 -284.87 488.89 860.09 157.94 -89.71 -571.29 -1005.15 -817.04 464.41 571.28 1005.11 157.94 -89.83zm1083.66 -512.8c129.82,-43.99 205.98,-163.95 228,-361.54l112.19 -997.08 -184.55 62.59 -68.27 683.93 -524.66 -483.17 -193.91 65.72 691.37 630.7c-10.03,83.61 -24.91,142.73 -46.68,176.28 -21.76,33.55 -53.98,56.62 -97.85,71.49 -45.33,15.38 -89.2,19.72 -134.16,15.75l55.15 162.74c41.82,4.98 96.1,-4.63 163.37,-27.41zm1364.18 -382.43c129.95,-23.81 226,-76.67 286.88,-156.76 62.51,-80.31 83.44,-176.45 63.47,-285.29 -19.97,-108.89 -73.66,-191.32 -160.66,-244.26 -87.28,-54.48 -195.87,-69.82 -324.22,-46.29l-302.09 55.48 -44.16 -240.45 623.85 -114.49 -30.13 -164.03 -802.47 147.28 208.71 1137.14 480.82 -88.33zm-406.54 -513.04l285.92 -52.48c157.6,-28.91 265.48,28.5 289.01,156.85 23.64,128.31 -53.99,218.06 -214.76,247.64l-285.92 52.48 -74.25 -404.49zm929.61 419.16c16.42,5.3 39.45,9.11 70.82,9.82 143.61,3.13 239.04,-52.56 296.41,-183.47 57.45,-132.57 82.56,-295.52 93.21,-554.7l10.36 -247.51 412.85 9.06 -21.85 989.07 181.63 4.01 25.49 -1155.9 -769.42 -16.92 -13.66 396.17c-9.66,211.25 -22.4,339.82 -56.12,444.86 -30.33,105 -84.19,150.12 -165.16,148.32 -24.78,-0.54 -44.54,-2.63 -60.96,-7.98l-3.6 165.17zm1483.27 82.85l776.77 -729.01 -147.24 839.44 178.99 31.38 199.72 -1138.81 -156.18 -27.33 -772.97 726.26 146.62 -836.14 -178.92 -31.38 -199.67 1138.73 152.88 26.86zm1253.04 301.25l205.32 -515.51 300.96 717.19 230.17 91.71 -344.66 -812.87 692.79 -292.93 -216.34 -86.2 -615.25 263.4 174.86 -438.88 -168.8 -67.23 -427.8 1074.09 168.75 67.23zm953.35 397.77l260.26 -173.78 460.02 298.33 -50.94 309.44 163.54 106 208.45 -1250.58 -146.99 -95.22 -1056.5 700.72 162.16 105.09zm841.57 -566.49l-86.74 522.49 -354.81 -229.97 441.55 -292.52zm560.72 1571.89l594.81 -81.1 185.63 197.25 -356.06 334.93 124.47 132.36 842.07 -792.14 -361.04 -383.77c-162.95,-173.19 -357.57,-189.65 -501.88,-53.9 -116.7,109.76 -139.97,260.97 -55.62,406.08l-622.88 80.35 150.5 159.94zm666.25 -239.04c-89.41,-95.01 -96.85,-194.58 -18.67,-268.11 77.04,-72.45 177.11,-60.04 266.52,34.97l230.81 245.43 -247.77 233.1 -230.89 -245.39zm169.47 1194.09l388.53 -277.14 183.26 256.8c69.94,98.18 150.21,156.6 241.96,174.31 92.71,19.05 180.12,-0.67 262.14,-59.16 80.68,-57.58 126.43,-132.79 135.83,-224.71 11.83,-91.58 -17.29,-186.43 -87.28,-284.66l-288.71 -404.7 -941.23 671.36 105.5 147.9zm805.39 -574.5l174.57 244.76c79.59,111.56 76.84,212.92 -13.2,277.22 -90.13,64.22 -188.19,34.77 -267.79,-76.75l-174.6 -244.8 281.02 -200.43zm-229.92 1502.61l493.65 -253.66 -244.51 738.37 113.23 220.36 274.38 -839.15 714.73 234.27 -106.5 -207.07 -636.8 -205.69 420.16 -215.97 -83.11 -161.53 -1028.21 528.46 82.98 161.61zm686.68 939.05c57.66,-97.56 145.41,-162.66 262.77,-196.67 117.37,-34.05 226.29,-26.15 325.69,25.87 100.91,51.51 167.3,131.94 199.01,241.37 31.8,109.51 18.89,212.97 -38.86,310.53 -56.11,97.14 -143.35,163.74 -260.72,197.79 -117.4,34.1 -226.79,24.53 -327.69,-26.99 -99.4,-51.93 -165.71,-132.45 -197.51,-241.87 -31.79,-109.43 -18.8,-212.97 37.31,-310.03zm82.15 715.6c142.31,75.59 294.39,89.96 457.72,42.54 163.41,-47.38 284.16,-140.89 362.29,-280.57 79.77,-140.05 96.1,-291.01 48.76,-454.34 -47.5,-163.45 -142.1,-282.07 -284.49,-357.78 -140.26,-74.45 -292.35,-88.74 -455.68,-41.4 -163.41,47.46 -284.16,140.97 -364.34,279.44 -78.09,139.63 -94.51,290.55 -47.13,453.96 47.47,163.32 142.15,282.07 282.87,358.15zm-64.6 634.88l986.65 -73.45 46.54 625.85 166.42 -12.36 -60.13 -807.07 -1152.93 85.87 13.45 181.16zm311.7 1023.96c88.28,-71.03 193.32,-101.03 315.16,-91.63 121.84,9.44 221.07,55.23 295.73,138.88 76.38,83.73 110.1,182.42 101.32,296.07 -8.73,113.56 -57.36,205.94 -145.65,276.93 -86.65,71.16 -191.82,102.79 -313.66,93.34 -121.92,-9.36 -220.94,-56.86 -297.28,-140.59 -74.66,-83.61 -108.42,-182.34 -99.65,-295.99 8.74,-113.56 57.33,-205.9 144.03,-277.01zm-175.03 698.72c106.63,120.92 243.88,187.85 413.52,200.93 169.63,13.12 315.5,-31.88 437.79,-135.04 123.97,-103.08 192.45,-238.54 205.57,-408.17 13.12,-169.68 -33.72,-314.03 -140.35,-434.99 -105.04,-119.04 -242.33,-186.02 -411.93,-199.14 -169.59,-13.12 -315.58,31.88 -439.38,133.33 -122.25,103.2 -190.73,238.66 -203.81,408.25 -13.12,169.68 33.68,314.08 138.59,434.83zm-272.21 698.09c-9.98,14.13 -20.43,34.93 -30.42,64.72 -45.58,136.26 -20.72,243.84 87.33,337.52 109.51,94.13 257.75,166.42 502.05,253.49l233.31 83.32 -131.02 391.53 -938.14 -314.15 -57.66 172.35 1096.24 367.05 244.38 -729.85 -374.32 -130.48c-198.84,-71.91 -317.88,-122.17 -408.13,-185.47 -91.38,-60.17 -118.41,-125.02 -92.67,-201.69 7.81,-23.56 15.67,-41.82 25.61,-55.94l-156.56 -52.4zm-873.29 1985.36l144.32 83.61 332.04 -573.08 317.21 183.8 -261.6 451.66 144.28 83.61 261.68 -451.67 250.06 144.99 -321.22 554.44 144.28 83.61 412.39 -711.59 -1000.39 -579.64 -423.05 730.26zm720.49 723.46l-235.23 300.37 -778.82 -610.02 -112.01 143.02 778.86 610.02 -236.28 301.67 131.32 102.87 583.53 -745.06 -131.37 -102.87zm-1442.65 224.33l108.22 293.6 -397.31 377.79 -288.96 -121.79 -141.27 134.37 1167.44 494.37 126.85 -120.63 -434.91 -1190.87 -140.06 133.16zm354.57 950.54l-487.85 -206.28 306.43 -291.34 181.42 497.62zm-1706.18 167.63l-130.23 1057.34 -424.09 -739.21 -157.64 90.42 575.42 1002.81 137.55 -78.97 128.98 -1052.74 422.5 736.28 157.6 -90.41 -575.42 -1002.73 -134.67 77.21zm-1149.05 584.66l281.91 832.25 -444.94 -309.68 -100.07 33.88 -165.25 516.34 -281.82 -832.21 -172.05 58.28 370.9 1094.99 172.05 -58.25 185.06 -611.98 522.02 372.49 175.15 -59.33 -370.9 -1095.07 -172.06 58.29zm-1236.95 330.83c-63.35,11.61 -104.42,71.24 -92.51,136.21 11.66,63.34 74.5,103.95 134.62,92.88 64.97,-11.91 106.05,-71.49 94.43,-134.92 -11.95,-64.92 -71.53,-106.08 -136.54,-94.17zm-950.3 118.41l32.59 988.77 -627.23 20.64 5.43 166.71 808.82 -26.61 -38.02 -1155.53 -181.59 6.02zm-711.84 -23.19c-64.22,-4.97 -119.29,42.16 -124.3,108.05 -5.01,64.22 45.42,119.41 106.34,124.13 65.89,5.1 120.83,-41.99 125.84,-106.21 5.06,-65.85 -41.99,-120.92 -107.88,-125.97zm-953.88 -104.54l-234.32 846.88 -194.16 -506.15 -101.86 -28.2 -426.64 334.3 234.31 -846.8 -175.1 -48.47 -308.31 1114.29 175.1 48.47 496.84 -402.32 222.61 601.41 178.28 49.34 308.36 -1114.28 -175.11 -48.47zm-1215.61 -404.87c-59.87,-23.73 -126.31,5.02 -150.63,66.44 -23.73,59.87 8.07,127.6 64.93,150.08 61.38,24.31 127.86,-4.39 151.59,-64.35 24.28,-61.42 -4.43,-127.89 -65.89,-152.17zm-602.37 -251.23c-11.2,-13.12 -28.79,-28.5 -55.16,-45.63 -120.54,-78.13 -230.92,-80.85 -348.58,0.46 -118.46,82.6 -225.46,208.12 -370.61,422.96l-138.93 205.19 -346.45 -224.58 538.07 -830.12 -152.42 -98.82 -628.91 970.06 645.87 418.69 219.77 -329.99c119.12,-174.61 197.55,-277.39 281.36,-348.96 81.02,-73.46 150.5,-83.53 218.48,-39.45 20.77,13.46 36.48,25.57 47.72,38.74l89.79 -138.55zm-1163.17 -810.03l-288.8 120.5 -394.17 -381.22 109.59 -293.77 -140.14 -135.54 -445.02 1187.19 125.85 121.63 1171.65 -484.42 -138.96 -134.37zm-934.84 394.13l185.64 -496.04 303.97 293.94 -489.61 202.1zm1.72 -1374.8l-808.53 570.12 -332.17 -471.06 808.44 -570.11 -104.66 -148.5 -944.82 666.3 541.58 767.96 944.82 -666.3 -104.66 -148.41zm-1412.32 -342.41l-174.36 -339.31 879.89 -452.16 -83.06 -161.62 -879.89 452.21 -175.11 -340.82 -148.37 76.26 432.53 841.7 148.37 -76.26zm150.62 -2296.34l-160.19 46.5 184.55 636.05 -352.1 102.24 -145.48 -501.3 -160.19 46.51 145.48 501.3 -277.64 80.51 -178.58 -615.45 -160.19 46.51 229.26 789.89 1110.32 -322.19 -235.24 -810.57zm-119.75 -774.22c-15.58,-119.54 -57.11,-209.08 -125.05,-270.21 -68.06,-62.79 -151.12,-87.03 -247.81,-74.45 -168.67,21.93 -266.44,141.18 -274.55,283.78 -44.08,-82.52 -137.71,-137 -255.66,-121.62 -176.87,22.93 -264.53,169.17 -237.95,373.94l67.64 520.82 1146.46 -148.83 -73.08 -563.43zm-476.06 451.54l-45.46 -350.51c-18.47,-142.48 34.81,-232.69 147.78,-247.35 116.28,-15.13 194.5,61.33 212.55,200.59l45.5 350.51 -360.37 46.76zm-455.3 59.08l-40.19 -309.52c-15.46,-119.67 26.11,-196.63 122.79,-209.21 96.6,-12.53 158.15,51.1 173.65,170.64l40.19 309.65 -296.44 38.44zm873.29 -1218.74l-276.98 -145.66 42.25 -546.67 296.19 -103.04 15.04 -194.28 -1198.23 414.31 -13.45 174.48 1120.3 593.47 14.88 -192.61zm-899.65 -468.8l500.38 -173.35 -32.59 421.62 -467.79 -248.27z"/>
   <path class="fil1" d="M1203.44 5625.85c-20.01,204.23 -201.89,353.6 -406.12,333.55 -204.23,-20.1 -353.56,-201.89 -333.55,-406.16 20.06,-204.24 201.89,-353.56 406.12,-333.55 204.32,20.1 353.65,201.89 333.55,406.16z"/>
  </g>
 </g>
</svg>
